<svg width="14" height="13" viewBox="0 0 14 13" fill="none" xmlns="http://www.w3.org/2000/svg">
<path d="M9.5986 3.7898L5.63438 8.13156C5.37571 8.41487 5.37571 8.87419 5.63438 9.1575C5.89305 9.4408 6.31243 9.4408 6.5711 9.1575L10.5353 4.81574C10.794 4.53243 10.794 4.07311 10.5353 3.7898C10.2767 3.5065 9.85726 3.5065 9.5986 3.7898Z" fill="white"/>
<path d="M3.4626 6.7913L5.62343 9.15793C5.8821 9.44123 6.30149 9.44123 6.56016 9.15793C6.81883 8.87463 6.81883 8.4153 6.56016 8.13199L4.39932 5.76537C4.14065 5.48206 3.72127 5.48206 3.4626 5.76537C3.20393 6.04867 3.20393 6.508 3.4626 6.7913Z" fill="white"/>
</svg>
