<svg width="12" height="7" viewBox="0 0 12 7" fill="none" xmlns="http://www.w3.org/2000/svg">
<path d="M10.9959 0.326506L5.99788 5.19851L0.999879 0.326506C0.910581 0.239284 0.790706 0.190453 0.665879 0.190453C0.541052 0.190453 0.421177 0.239284 0.331879 0.326506C0.288641 0.36887 0.254291 0.419436 0.230841 0.475242C0.207391 0.531048 0.195312 0.590973 0.195312 0.651506C0.195312 0.712039 0.207391 0.771963 0.230841 0.827769C0.254291 0.883575 0.288641 0.934142 0.331879 0.976506L5.64888 6.16051C5.74225 6.25152 5.86749 6.30246 5.99788 6.30246C6.12827 6.30246 6.25351 6.25152 6.34688 6.16051L11.6639 0.977506C11.7074 0.93511 11.742 0.88442 11.7657 0.828429C11.7893 0.772438 11.8015 0.71228 11.8015 0.651506C11.8015 0.590732 11.7893 0.530574 11.7657 0.474583C11.742 0.418591 11.7074 0.367902 11.6639 0.325506C11.5746 0.238283 11.4547 0.189453 11.3299 0.189453C11.2051 0.189453 11.0852 0.238283 10.9959 0.325506V0.326506Z" fill="#333"/>
</svg>
