<svg width="321" height="46" viewBox="0 0 321 46" fill="none" xmlns="http://www.w3.org/2000/svg">
<path d="M258.676 34.1857C255.298 34.1857 257.408 29.2121 260.2 29.2121C263.643 29.2121 261.884 34.1857 258.676 34.1857ZM257.888 27.2845H257.856L259.017 21.0542H254.456L252.772 30.341C251.76 34.6223 252.698 37.5724 257.792 37.5724C263.696 37.5724 266.691 33.9514 266.691 30.2665C266.691 25.5166 260.765 24.6433 257.888 27.2845Z" fill="#144D29"/>
<path d="M147.822 24.4201C148.675 24.4201 149.549 24.8035 149.549 25.7833C149.549 27.2104 147.726 27.7323 144.071 27.7003C144.401 26.2093 145.638 24.4201 147.822 24.4201ZM153.95 25.7514C153.95 22.7907 151.638 21.0015 148.408 21.0015C138.327 21.0015 134.981 37.9882 146.032 37.6368C149.336 37.5303 151.254 35.1873 151.638 32.9827C149.389 34.069 143.623 35.1127 143.623 31.119C150.007 31.2894 153.95 29.8197 153.95 25.7514Z" fill="#144D29"/>
<path d="M238.218 21.0117C237.195 26.571 236.928 34.8993 231.27 37.5725C239.678 39.9048 240.765 30.6926 241.863 24.7499H245.454L243.078 37.6364H247.82L250.879 21.0117H238.218Z" fill="#144D29"/>
<path d="M226.674 24.4201C227.526 24.4201 228.4 24.8142 228.4 25.7833C228.4 27.2104 226.578 27.7323 222.933 27.7003C223.253 26.2093 224.489 24.4201 226.674 24.4201ZM232.802 25.7514C232.802 22.7907 230.489 21.0015 227.26 21.0015C217.178 21.0015 213.832 37.9882 224.884 37.6368C228.187 37.5303 230.105 35.1873 230.489 32.9827C228.24 34.069 222.475 35.1127 222.475 31.119C228.859 31.2894 232.802 29.8197 232.802 25.7514Z" fill="#144D29"/>
<path d="M194.939 37.5937C194.939 37.5937 196.176 31.0759 196.559 28.9352C196.975 26.5496 198.392 24.8137 200.087 24.8137C201.472 24.8137 201.952 26.539 201.557 28.4773C201.227 30.0854 200.417 34.3454 200.417 34.3454C199.948 36.7949 200.652 37.5617 204.041 37.5937C204.041 37.5937 204.968 32.7373 205.522 29.7979C206.044 27.0395 207.472 24.8137 209.305 24.8137C210.754 24.8137 211.042 26.4751 210.904 28.424C210.723 30.8203 209.891 33.5999 209.753 34.3135C209.273 36.4222 210.531 37.5191 213.706 37.5937C213.706 37.5937 214.527 33.2911 215.273 29.3932C215.55 27.9022 215.635 26.4538 215.635 25.3462C215.635 19.2544 208.762 20.3726 206.247 24.0469C205.778 18.9349 198.936 21.1927 197.028 23.983L196.964 24.0895V23.983C196.783 22.2151 195.813 21.3418 193.501 21.3631L190.41 37.5937H194.939Z" fill="#144D29"/>
<path d="M161.08 27.9453C161.538 26.2732 162.401 24.1326 164.533 24.1326C165.481 24.1326 166.195 24.6225 166.195 25.4319C166.195 27.3063 162.348 27.7536 161.08 27.9453ZM162.454 34.2927C160.195 34.2927 160.142 32.5354 160.525 30.8953C161.346 30.5758 162.295 30.4374 163.168 30.4374C166.824 30.4374 165.822 34.2927 162.454 34.2927ZM166.984 28.7227L166.589 28.7121L166.984 28.6269C168.614 28.2115 170.692 26.9761 170.692 24.8781C170.692 21.6937 167.442 21.0015 164.927 21.0015C158.565 21.0015 155.645 26.8164 155.645 32.61C155.645 40.1928 170.266 38.6166 170.266 31.9923C170.266 29.9901 168.614 28.8825 166.984 28.7227Z" fill="#144D29"/>
<path d="M123.61 20.9587C131.635 19.7446 124.143 28.6267 129.343 28.6267C130.26 28.6267 131.272 28.2859 131.859 27.7428L133.095 20.9587H137.752L134.693 37.626H130.026L131.272 31.2786L131.283 31.236L131.198 31.2786C130.324 31.8324 129.024 32.2371 127.457 32.2371C120.434 32.2371 122.747 25.3252 123.61 20.9587Z" fill="#144D29"/>
<path d="M114.233 28.4136C113.508 32.3541 111.75 33.9623 110.354 33.9623C106.101 33.9623 109.149 23.6424 114.915 24.7074L114.233 28.4136ZM118.559 30.1815L120.158 21.7787C112.538 19.2227 103.512 23.0034 103.512 32.1837C103.512 38.9145 110.876 39.2979 113.743 34.2285L113.849 34.0688L113.838 34.2285C113.647 36.6887 115.831 37.8921 119.316 37.3277C117.515 35.5278 118.165 32.2476 118.559 30.1815Z" fill="#144D29"/>
<path d="M90.8809 28.8928C91.0514 28.2645 91.2752 27.7 91.5416 27.1995C91.9359 26.4327 92.4048 25.8469 92.927 25.4209C93.4599 25.0162 94.0247 24.8032 94.6108 24.7926C95.1224 24.8032 95.5274 24.9417 95.8258 25.1866C96.1242 25.4422 96.3479 25.7724 96.4758 26.1558C96.6037 26.5498 96.6677 26.9652 96.6677 27.4018C96.6677 28.0302 96.5931 28.6692 96.4439 29.2975C96.3693 29.6064 96.284 29.9152 96.1881 30.2028C95.6872 31.5234 94.8879 32.7694 93.9288 33.5149C93.8329 33.5895 93.737 33.6534 93.6304 33.7066C93.1828 33.9729 92.7139 34.1007 92.2024 34.1007C91.7441 34.1007 91.3391 34.0368 90.9874 33.8983C90.8596 33.8451 90.7317 33.7918 90.6144 33.7279C90.4333 33.6108 90.2628 33.4723 90.0816 33.3019L90.6677 29.8833C90.721 29.5425 90.7956 29.2123 90.8809 28.8928ZM91.3178 23.6637C90.7956 21.981 89.8365 21.1609 87.7584 21.2248C87.7584 21.2248 84.4653 37.9453 83.0586 45.4216C85.9147 45.6666 87.8649 45.0169 88.3232 42.3651L89.3569 36.9975C89.3569 36.9975 90.0923 37.317 90.6038 37.4448C91.1153 37.5726 91.7121 37.6471 92.3729 37.6471C93.4705 37.6471 94.5043 37.4554 95.4421 37.0827C99.2467 35.613 101.613 31.4595 101.613 27.0184C101.613 26.1984 101.495 25.4635 101.293 24.8032L101.272 24.7287C101.058 24.0045 100.739 23.3655 100.323 22.8117C99.8967 22.2579 99.3746 21.8212 98.7245 21.5017C98.085 21.1929 97.3391 21.0225 96.4758 21.0225C96.284 21.0225 96.1028 21.0331 95.9217 21.0438C94.5043 21.1503 93.0549 21.7999 91.872 23.0779C91.7015 23.259 91.3178 23.6637 91.3178 23.6637Z" fill="#144D29"/>
<path d="M182.991 28.3814C182.266 32.3113 180.507 33.9088 179.111 33.9088C174.87 33.9088 177.907 23.6315 183.673 24.6859L182.991 28.3814ZM187.317 30.1493L188.916 21.7784C181.296 19.2331 172.27 22.9925 172.27 32.1409C172.27 38.8397 179.644 39.2231 182.5 34.175L182.618 33.9727L182.596 34.175C182.404 36.6245 184.589 37.828 188.074 37.2635C186.273 35.4637 186.923 32.2048 187.317 30.1493Z" fill="#144D29"/>
<path d="M71.4653 21.7359H73.3623C76.4848 21.7359 78.5842 20.4153 78.5842 18.2214C78.5842 16.3257 77.039 15.5163 74.8649 15.5163C73.8738 15.5163 73.0852 15.5908 72.6482 15.708L71.4653 21.7359ZM69.174 33.1207C69.8028 33.1953 70.5168 33.2379 71.3481 33.2379C74.428 33.2379 77.2308 32.0451 77.2308 29.1483C77.2308 26.5603 75.0248 25.7829 72.3285 25.7829H70.5914L69.174 33.1207ZM67.746 11.8101C69.643 11.4586 72.0941 11.1924 74.7477 11.1924C77.5079 11.1924 79.5327 11.5332 81.3124 12.5769C83.0922 13.4715 84.435 15.1329 84.435 17.3268C84.435 20.607 81.9412 22.6944 79.0531 23.5038L78.8507 23.5677L79.0531 23.6209C81.6215 24.3984 83.2414 26.4432 83.2414 29.2974C83.2414 32.077 81.7068 34.1218 79.6073 35.4744C77.3587 36.9441 73.991 37.6044 69.5684 37.6044C66.5631 37.6044 64.1546 37.3701 62.8438 37.0932L67.746 11.8101Z" fill="#144D29"/>
<path fill-rule="evenodd" clip-rule="evenodd" d="M54.2551 25.6974C54.8732 23.4716 55.0757 21.054 54.8626 18.8921C48.2658 31.278 29.9357 30.4793 21.1543 28.3067L22.8807 19.0838C16.3799 18.743 9.16507 20.9795 4.90225 27.3375C1.19359 32.8755 0 42.6309 0 42.6309C18.2342 47.253 48.1912 48.7227 54.2551 25.6974Z" fill="#144D29"/>
<path fill-rule="evenodd" clip-rule="evenodd" d="M51.464 2.1822C35.0415 -1.23645 8.64396 -3.4623 4.57296 18.1785L3.07031 26.4536C6.72569 13.2369 21.0488 11.4797 31.141 13.4606L29.4039 22.5876C35.1268 22.8965 42.3842 20.8623 46.4446 15.7397C50.5795 10.5105 51.464 2.1822 51.464 2.1822Z" fill="#89BD2F"/>
<path d="M91.0651 13.2688L90.3618 16.8685H88.582L89.6904 11.2134H92.0775L92.7809 14.9409L94.7951 11.2134H97.3102L96.1912 16.8685H94.4221L95.1361 13.2688L93.1539 16.8685H91.7792L91.0651 13.2688Z" fill="#89BD2F"/>
<path d="M114.917 12.3422L114.789 12.9386C114.715 13.3007 114.629 13.6308 114.533 13.9077C114.427 14.1953 114.331 14.4509 114.235 14.6639C114.107 14.9301 113.99 15.1538 113.873 15.3242C113.755 15.4946 113.649 15.633 113.564 15.7395H115.759L116.42 12.3422H114.917ZM111.688 15.7395C112.05 15.3029 112.37 14.8023 112.636 14.2485C112.903 13.6841 113.105 13.0238 113.254 12.257L113.457 11.2026H118.455L117.56 15.7395H118.508L117.901 18.3488H116.334L116.633 16.8791H112.359L112.072 18.3488H110.516L110.931 15.7395H111.688Z" fill="#89BD2F"/>
<path d="M127.415 11.2026H129.546L128.438 16.8791H126.626L127.308 13.3859L124.623 16.8791H122.48L123.599 11.2026H125.411L124.718 14.6958L127.415 11.2026Z" fill="#89BD2F"/>
<path d="M136.752 15.7395L137.636 11.2026H139.437L138.531 15.7395H139.491L138.894 18.3488H137.327L137.615 16.8791H132.691L133.81 11.2026H135.622L134.727 15.7395H136.752Z" fill="#89BD2F"/>
<path d="M148.422 11.2026H150.543L149.435 16.8684H147.634L148.305 13.3752L145.63 16.8684H143.488L144.607 11.2026H146.419L145.726 14.6958L148.422 11.2026Z" fill="#89BD2F"/>
<path d="M155.476 16.8684H153.664L154.783 11.2026H156.595L156.179 13.3326H158.119L158.545 11.2026H160.346L159.238 16.8684H157.426L157.895 14.4722H155.955L155.476 16.8684Z" fill="#89BD2F"/>
<path d="M178.154 11.2026H180.222L177.419 13.9823L179.231 16.8897H177.206L175.884 14.4722L175.437 16.8897H173.625L174.733 11.2026H176.545L176.087 13.4178L178.154 11.2026Z" fill="#89BD2F"/>
<path d="M188.385 11.2026H190.516L189.408 16.8684H187.596L188.278 13.3752L185.603 16.8684H183.461L184.58 11.2026H186.392L185.699 14.6958L188.385 11.2026Z" fill="#89BD2F"/>
<path d="M216.925 15.7502L217.82 11.2026H219.621L218.704 15.7502H219.674L219.067 18.3594H217.5L217.799 16.8897H212.875L213.994 11.2026H215.806L214.91 15.7502H216.925Z" fill="#89BD2F"/>
<path d="M235.82 16.8684H234.008L235.127 11.2026H236.938L236.523 13.3433H238.473L238.889 11.2026H240.7L239.581 16.8684H237.77L238.249 14.4722H236.299L235.82 16.8684Z" fill="#89BD2F"/>
<path d="M244.707 12.3422L244.931 11.2026H250.515L250.281 12.3528H248.405L247.51 16.8684H245.698L246.593 12.3422H244.707Z" fill="#89BD2F"/>
<path d="M169.884 14.7059C169.725 15.2384 169.501 15.6538 169.213 15.952C168.925 16.2395 168.616 16.4632 168.307 16.6123C168.019 16.7188 167.753 16.7933 167.487 16.8359C167.359 16.8466 166.73 16.9318 166.112 16.8359C165.515 16.7401 164.929 16.4738 164.705 16.2821C164.236 15.8774 163.991 15.3236 163.98 14.6314C163.98 14.5568 163.98 14.4823 163.98 14.4077C163.98 14.3332 163.991 14.248 164.002 14.1734C164.076 13.4279 164.375 12.7463 164.929 12.1286C165.472 11.5109 166.304 11.1914 167.423 11.1914H167.529C168.318 11.1914 168.893 11.3192 169.256 11.5642C169.618 11.8091 169.863 12.086 169.98 12.3736C170.034 12.5014 170.076 12.6185 170.087 12.7357C170.108 12.8635 170.119 12.97 170.13 13.0658C170.13 13.1084 170.13 13.151 170.13 13.183C170.13 13.2149 170.13 13.2575 170.119 13.2895H168.371C168.382 13.2575 168.382 13.2149 168.382 13.183C168.382 13.151 168.382 13.1191 168.382 13.0765C168.371 13.0445 168.371 13.0126 168.371 12.9806C168.361 12.9593 168.361 12.9274 168.361 12.8954C168.329 12.7357 168.254 12.5866 168.126 12.4588C167.998 12.331 167.785 12.2671 167.487 12.2564C167.05 12.2777 166.719 12.4268 166.474 12.725C166.24 13.0232 166.069 13.3534 165.973 13.7048C165.931 13.8752 165.909 14.035 165.888 14.1841C165.867 14.3438 165.856 14.4823 165.867 14.6207C165.867 14.6846 165.867 14.7592 165.877 14.8337C165.888 14.9083 165.899 14.9828 165.931 15.0574C165.973 15.2491 166.08 15.4195 166.229 15.5686C166.378 15.7283 166.613 15.8135 166.922 15.8348C166.986 15.8348 167.071 15.8135 167.178 15.7922C167.284 15.7603 167.391 15.7177 167.508 15.6431C167.636 15.5686 167.742 15.4621 167.849 15.313C167.956 15.1532 168.041 14.9509 168.105 14.7059H169.884Z" fill="#89BD2F"/>
<path d="M198.564 11.2134H200.696L199.587 16.8898H197.776L198.458 13.386L195.772 16.8898H193.641L194.76 11.2134H196.571L195.879 14.7066L198.564 11.2134Z" fill="#89BD2F"/>
<path d="M200.354 9.08301C200.354 9.08301 199.736 10.3717 198.074 10.3717C196.422 10.3717 195.793 9.08301 195.793 9.08301H197.146C197.146 9.08301 197.36 9.61551 198.063 9.60486C198.766 9.59421 198.99 9.08301 198.99 9.08301H200.354Z" fill="#89BD2F"/>
<path d="M228.68 13.5138C228.691 13.4605 228.702 13.3221 228.702 13.2795C228.702 12.5979 228.158 12.3742 227.668 12.3742C226.879 12.3742 226.346 12.8109 226.069 13.5138H228.68ZM229.916 15.1645C229.149 16.4638 227.774 16.9005 226.687 16.9005C225.195 16.9005 224.098 16.3999 224.098 14.9409C224.098 14.0463 224.684 11.2134 227.988 11.2134C229.49 11.2134 230.428 11.7885 230.428 13.0558C230.428 13.3008 230.375 13.7161 230.172 14.4403H225.845C225.824 14.5255 225.781 14.7279 225.781 14.8557C225.781 15.2817 225.995 15.7609 226.975 15.7609C227.444 15.7609 227.966 15.5479 228.19 15.1645H229.916Z" fill="#89BD2F"/>
<path d="M105.504 13.5031C105.515 13.4499 105.526 13.3114 105.526 13.2795C105.526 12.5979 104.982 12.3742 104.492 12.3742C103.703 12.3742 103.171 12.8002 102.893 13.5031H105.504ZM106.741 15.1539C105.973 16.4425 104.599 16.8685 103.512 16.8685C102.02 16.8685 100.922 16.368 100.922 14.9196C100.922 14.0356 101.508 11.2134 104.812 11.2134C106.304 11.2134 107.242 11.7885 107.242 13.0452C107.242 13.2901 107.199 13.7055 106.996 14.419H102.67C102.648 14.5149 102.606 14.7172 102.606 14.845C102.606 15.2604 102.819 15.7396 103.789 15.7396C104.268 15.7396 104.79 15.5373 105.014 15.1539H106.741Z" fill="#89BD2F"/>
<path d="M255.855 14.3014C255.844 14.4079 255.834 14.5251 255.834 14.6316C255.844 15.0256 255.94 15.3238 256.121 15.5368C256.303 15.7498 256.558 15.867 256.899 15.8776C257.315 15.867 257.645 15.7179 257.88 15.4303C258.114 15.1428 258.285 14.8233 258.391 14.4718C258.445 14.2908 258.477 14.1097 258.509 13.9393C258.53 13.7583 258.541 13.5985 258.541 13.4707C258.53 13.0021 258.423 12.6826 258.2 12.5016C257.976 12.3205 257.741 12.2247 257.475 12.2247C257.379 12.2247 257.272 12.246 257.134 12.2779C257.006 12.3099 256.878 12.3738 256.739 12.459C256.569 12.5868 256.409 12.7678 256.249 13.0021C256.1 13.2471 255.983 13.5666 255.898 13.9819C255.887 14.0884 255.866 14.1949 255.855 14.3014ZM256.377 11.2023L256.26 11.7135C256.622 11.4046 256.974 11.2023 257.294 11.1171C257.624 11.0319 257.912 10.9893 258.168 10.9893H258.274C258.956 10.9893 259.489 11.2023 259.862 11.6283C260.235 12.0543 260.416 12.6081 260.437 13.2684C260.437 13.4494 260.427 13.6411 260.406 13.8328C260.384 14.0245 260.352 14.2269 260.299 14.4186C260.128 15.0895 259.819 15.7179 259.319 16.2504C258.466 17.1663 257.166 17.0917 257.166 17.0917C256.835 17.0811 256.526 17.0278 256.239 16.9213C255.951 16.8148 255.716 16.6551 255.535 16.4314L255.034 18.9874H253.223L254.747 11.2023H256.377Z" fill="#89BD2F"/>
<path d="M285.557 21.948L285.196 24H276.266L276.627 21.948L282.631 16.913C283.366 16.2923 283.879 15.754 284.17 15.298C284.461 14.842 284.607 14.3797 284.607 13.911C284.607 13.341 284.436 12.8977 284.094 12.581C283.752 12.2643 283.258 12.106 282.612 12.106C282.004 12.106 281.478 12.296 281.035 12.676C280.592 13.0433 280.262 13.569 280.047 14.253L277.995 13.664C278.413 12.5113 279.046 11.65 279.895 11.08C280.756 10.4973 281.713 10.206 282.764 10.206C283.423 10.206 284.005 10.2947 284.512 10.472C285.031 10.6493 285.468 10.8963 285.823 11.213C286.178 11.517 286.45 11.8907 286.64 12.334C286.83 12.7647 286.925 13.2333 286.925 13.74C286.925 14.2467 286.855 14.709 286.716 15.127C286.577 15.5323 286.368 15.9187 286.089 16.286C285.823 16.6533 285.494 17.0207 285.101 17.388C284.721 17.7427 284.284 18.1227 283.79 18.528L279.629 21.948H285.557ZM290.257 20.257C290.257 20.599 290.32 20.9093 290.447 21.188C290.573 21.454 290.744 21.682 290.96 21.872C291.175 22.062 291.422 22.2077 291.701 22.309C291.979 22.4103 292.271 22.461 292.575 22.461C293.461 22.461 294.158 22.1887 294.665 21.644C295.184 21.0993 295.444 20.3773 295.444 19.478C295.444 19.1233 295.38 18.8067 295.254 18.528C295.127 18.2493 294.962 18.015 294.76 17.825C294.557 17.635 294.323 17.4957 294.057 17.407C293.791 17.3057 293.518 17.255 293.24 17.255C292.784 17.255 292.366 17.331 291.986 17.483C291.618 17.635 291.308 17.8503 291.055 18.129C290.801 18.395 290.605 18.7117 290.466 19.079C290.326 19.4463 290.257 19.839 290.257 20.257ZM292.727 15.678C292.841 15.64 292.98 15.6083 293.145 15.583C293.322 15.5577 293.487 15.545 293.639 15.545C294.297 15.545 294.88 15.6463 295.387 15.849C295.893 16.0517 296.318 16.3303 296.66 16.685C297.002 17.027 297.261 17.426 297.439 17.882C297.616 18.338 297.705 18.8193 297.705 19.326C297.705 19.9973 297.584 20.637 297.344 21.245C297.116 21.853 296.78 22.385 296.337 22.841C295.893 23.297 295.349 23.6643 294.703 23.943C294.057 24.209 293.316 24.342 292.48 24.342C291.834 24.342 291.238 24.247 290.694 24.057C290.149 23.867 289.674 23.601 289.269 23.259C288.876 22.9043 288.566 22.4737 288.338 21.967C288.11 21.4603 287.996 20.8903 287.996 20.257C287.996 19.5857 288.141 18.908 288.433 18.224C288.737 17.54 289.231 16.78 289.915 15.944L294.323 10.548H297.04L292.708 15.64L292.727 15.678Z" fill="#E31E24"/>
<path d="M307.893 11.1885L307.71 12.2197H304.95L305.132 11.1885H307.893ZM308.871 11.1885L307.861 17H306.599L307.608 11.1885H308.871ZM304.815 11.1885H306.078L305.438 14.0566C305.385 14.3324 305.32 14.6117 305.245 14.8945C305.174 15.1738 305.082 15.4406 304.971 15.6948C304.86 15.9491 304.721 16.1764 304.552 16.377C304.384 16.5739 304.178 16.7279 303.935 16.8389C303.695 16.9499 303.406 17.0036 303.07 17H302.635L302.758 15.9419L302.946 15.9312C303.158 15.9168 303.335 15.856 303.478 15.7485C303.625 15.6375 303.745 15.4997 303.838 15.335C303.931 15.1702 304.006 14.9912 304.063 14.7979C304.124 14.6009 304.171 14.4058 304.203 14.2124C304.239 14.0155 304.271 13.8364 304.3 13.6753L304.815 11.1885ZM311.798 17.1074C311.4 17.1003 311.048 17.0233 310.74 16.8765C310.435 16.7261 310.183 16.5238 309.982 16.2695C309.782 16.0117 309.637 15.7163 309.547 15.3833C309.458 15.0467 309.427 14.6886 309.456 14.3091L309.478 14.0889C309.517 13.6986 309.612 13.3226 309.762 12.9609C309.913 12.5957 310.113 12.2716 310.364 11.9888C310.618 11.7023 310.917 11.4767 311.261 11.312C311.604 11.1473 311.988 11.0703 312.41 11.0811C312.815 11.0882 313.157 11.1724 313.436 11.3335C313.715 11.4946 313.937 11.7095 314.102 11.978C314.267 12.243 314.376 12.5438 314.43 12.8804C314.487 13.217 314.496 13.5661 314.457 13.9277L314.381 14.481H310.02L310.17 13.5518L313.248 13.5571L313.27 13.4443C313.302 13.2188 313.289 13.0057 313.232 12.8052C313.178 12.6047 313.078 12.4399 312.931 12.311C312.784 12.1821 312.587 12.1141 312.34 12.1069C312.072 12.0998 311.841 12.1553 311.647 12.2734C311.458 12.3916 311.3 12.5509 311.175 12.7515C311.049 12.952 310.951 13.1704 310.879 13.4067C310.811 13.6395 310.763 13.8669 310.734 14.0889L310.713 14.3037C310.691 14.515 310.697 14.7244 310.729 14.9321C310.761 15.1398 310.824 15.3296 310.917 15.5015C311.01 15.6698 311.139 15.8076 311.304 15.915C311.468 16.0189 311.673 16.0744 311.916 16.0815C312.22 16.0887 312.496 16.026 312.743 15.8936C312.994 15.7575 313.221 15.582 313.425 15.3672L314.048 16.0278C313.884 16.2749 313.68 16.479 313.436 16.6401C313.196 16.8013 312.935 16.9212 312.652 17C312.373 17.0752 312.088 17.111 311.798 17.1074ZM318.469 11.1885L317.459 17H316.191L317.201 11.1885H318.469ZM320.316 11.1885L320.139 12.209H315.203L315.38 11.1885H320.316Z" fill="#E31E24"/>
</svg>
