<svg width="19" height="19" viewBox="0 0 19 19" fill="none" xmlns="http://www.w3.org/2000/svg">
<path d="M18.3901 17.3296L13.1613 12.1007C14.153 10.8764 14.75 9.31977 14.75 7.62502C14.75 3.69631 11.5537 0.5 7.62499 0.5C3.69627 0.5 0.5 3.69631 0.5 7.62502C0.5 11.5537 3.69631 14.75 7.62503 14.75C9.31977 14.75 10.8764 14.153 12.1007 13.1613L17.3296 18.3902C17.4761 18.5366 17.7135 18.5366 17.86 18.3902L18.3902 17.8599C18.5366 17.7135 18.5366 17.476 18.3901 17.3296ZM7.62503 13.25C4.52322 13.25 2.00001 10.7268 2.00001 7.62502C2.00001 4.52322 4.52322 2.00001 7.62503 2.00001C10.7268 2.00001 13.25 4.52322 13.25 7.62502C13.25 10.7268 10.7268 13.25 7.62503 13.25Z" fill="#1D6C28"/>
</svg>
